<svg xmlns="http://www.w3.org/2000/svg" viewBox="0 0 60 75" x="0px" y="0px">
<path d="M3,60H18.257a16.875,16.875,0,0,0,5.348-.868L55.086,48.639a7.228,7.228,0,0,0,4.8-8.074L53.38,3.473a4.21,4.21,0,0,0-8.345,1.016l.036.555a4.308,4.308,0,0,0-6.2,2.593c-.667,2.3-2.7,9.287-8.692,14.616a32.515,32.515,0,0,0-9.717,15.626A2.886,2.886,0,0,1,17.668,40H3a3,3,0,0,0-3,3V57A3,3,0,0,0,3,60ZM46.662,29.373h0A1.525,1.525,0,0,1,45.141,31H41.5a.4.4,0,0,1-.345-.609A43.06,43.06,0,0,0,45.9,17.637ZM2,43a1,1,0,0,1,1-1H17.668a4.892,4.892,0,0,0,4.722-3.6A30.492,30.492,0,0,1,31.5,23.747C37.93,18.036,40.081,10.629,40.787,8.2A2.315,2.315,0,0,1,41.94,6.779a2.269,2.269,0,0,1,1.8-.144A2.308,2.308,0,0,1,45.3,9.1c-.414,3.32-1.675,13.424-5.843,20.244A2.4,2.4,0,0,0,41.5,33h3.637a3.525,3.525,0,0,0,3.517-3.759L47.031,4.357a2.209,2.209,0,0,1,4.379-.536l6.51,37.092a5.216,5.216,0,0,1-3.467,5.829L22.973,57.235A14.906,14.906,0,0,1,18.257,58H3a1,1,0,0,1-1-1Z"/>
<!-- <text x="0" y="75" fill="#000000" font-size="5px" font-weight="bold" font-family="'Helvetica Neue', Helvetica, Arial-Unicode, Arial, Sans-serif">Created by Juicy Fish</text><text x="0" y="80" fill="#000000" font-size="5px" font-weight="bold" font-family="'Helvetica Neue', Helvetica, Arial-Unicode, Arial, Sans-serif">from the Noun Project</text> -->
</svg>