<svg xmlns="http://www.w3.org/2000/svg" viewBox="0 0 60 75" x="0px" y="0px">
<path d="M21.476,50.854A8.7,8.7,0,0,1,24,57a3,3,0,0,0,3,3H44a3,3,0,0,0,3-3V54.211a10.881,10.881,0,0,1,1.832-6.051A12.869,12.869,0,0,0,51,41V13.69a4.8,4.8,0,0,0-1.469-3.436A4.3,4.3,0,0,0,46.332,9,4.438,4.438,0,0,0,44,9.773V8.7a4.806,4.806,0,0,0-1.472-3.442A4.362,4.362,0,0,0,39.332,4,4.435,4.435,0,0,0,37,4.773V4.7a4.806,4.806,0,0,0-1.472-3.442A4.328,4.328,0,0,0,32.332,0,4.538,4.538,0,0,0,28,4.5v.26A4.473,4.473,0,0,0,25.5,4,4.561,4.561,0,0,0,21,8.5V35.271l-5.373-4.716a5.108,5.108,0,0,0-6.417-.746,5.055,5.055,0,0,0-.781,7.7ZM10.322,31.472A2.812,2.812,0,0,1,11.9,31a3.368,3.368,0,0,1,2.359,1.015l7.08,6.216A1,1,0,0,0,23,37.479V8.5A2.565,2.565,0,0,1,25.5,6,2.5,2.5,0,0,1,28,8.5V23a1,1,0,0,0,2,0V4.5A2.553,2.553,0,0,1,32.406,2a2.393,2.393,0,0,1,1.735.692A2.8,2.8,0,0,1,35,4.7V23a1,1,0,0,0,2,0V8.5A2.553,2.553,0,0,1,39.406,6a2.369,2.369,0,0,1,1.735.692A2.8,2.8,0,0,1,42,8.7V24a1,1,0,0,0,2,0V13.5A2.553,2.553,0,0,1,46.406,11a2.34,2.34,0,0,1,1.738.693A2.788,2.788,0,0,1,49,13.69V41a10.877,10.877,0,0,1-1.832,6.049A12.87,12.87,0,0,0,45,54.211V57a1,1,0,0,1-1,1H27a1,1,0,0,1-1-1,10.681,10.681,0,0,0-3.1-7.547C9.856,36.108,9.856,36.108,9.855,36.108a3.055,3.055,0,0,1,.467-4.636Z"/>
<!-- <text x="0" y="75" fill="#000000" font-size="5px" font-weight="bold" font-family="'Helvetica Neue', Helvetica, Arial-Unicode, Arial, Sans-serif">Created by Juicy Fish</text><text x="0" y="80" fill="#000000" font-size="5px" font-weight="bold" font-family="'Helvetica Neue', Helvetica, Arial-Unicode, Arial, Sans-serif">from the Noun Project</text> -->
</svg>