<svg xmlns="http://www.w3.org/2000/svg" viewBox="0 0 60 75" x="0px" y="0px">
<path d="M15.071,49.485A9.936,9.936,0,0,1,18,56.557,3.448,3.448,0,0,0,21.443,60H43.557A3.448,3.448,0,0,0,47,56.557V55.083a26.721,26.721,0,0,1,2.41-11.128A28.688,28.688,0,0,0,52,32V9.5a5.49,5.49,0,0,0-9.118-4.131A5.51,5.51,0,0,0,37.5,1a5.417,5.417,0,0,0-3.882,1.608c-.1.1-.172.213-.262.316A5.5,5.5,0,0,0,28.5,0a5.391,5.391,0,0,0-4.833,2.921A5.494,5.494,0,0,0,14,6.5V12H13a7.009,7.009,0,0,0-7,7V35.443a11.923,11.923,0,0,0,3.515,8.486ZM46.5,6A3.5,3.5,0,0,1,50,9.5v6a3.5,3.5,0,0,1-7,0v-6A3.5,3.5,0,0,1,46.5,6Zm-9-3A3.5,3.5,0,0,1,41,6.5v12A3.5,3.5,0,0,1,37.5,22a3.467,3.467,0,0,1-1.678-.445A5.974,5.974,0,0,0,34,12.812V6.5A3.506,3.506,0,0,1,37.5,3ZM25,5.5A3.506,3.506,0,0,1,28.5,2,3.5,3.5,0,0,1,32,5.5v6.59A6,6,0,0,0,31,12H25ZM19.5,3A3.5,3.5,0,0,1,23,6.5V12H16V6.5A3.5,3.5,0,0,1,19.5,3ZM8,19a5.006,5.006,0,0,1,5-5H31a4,4,0,0,1,0,8H17a1,1,0,0,0-.354,1.936C16.946,24.05,24,26.85,24,36a1,1,0,0,0,2,0,14.828,14.828,0,0,0-5.491-12H31a5.971,5.971,0,0,0,3.338-1.017A5.446,5.446,0,0,0,37.5,24a5.51,5.51,0,0,0,5.382-4.369A5.476,5.476,0,0,0,50,19.739V32a26.721,26.721,0,0,1-2.41,11.128A28.688,28.688,0,0,0,45,55.083v1.474A1.444,1.444,0,0,1,43.557,58H21.443A1.444,1.444,0,0,1,20,56.557a11.923,11.923,0,0,0-3.515-8.486l-5.556-5.556A9.936,9.936,0,0,1,8,35.443Z"/>
<!-- <text x="0" y="75" fill="#000000" font-size="5px" font-weight="bold" font-family="'Helvetica Neue', Helvetica, Arial-Unicode, Arial, Sans-serif">Created by Juicy Fish</text><text x="0" y="80" fill="#000000" font-size="5px" font-weight="bold" font-family="'Helvetica Neue', Helvetica, Arial-Unicode, Arial, Sans-serif">from the Noun Project</text> -->
</svg>