<svg xmlns="http://www.w3.org/2000/svg" viewBox="0 0 60 75" x="0px" y="0px">
<path d="M12,28V40.233a10.984,10.984,0,0,0,3.844,8.354l2.632,2.268A8.7,8.7,0,0,1,21,57a3.008,3.008,0,0,0,3.017,3H41a3,3,0,0,0,3-3V54.211a10.881,10.881,0,0,1,1.832-6.051A12.865,12.865,0,0,0,48,41V24.5A4.505,4.505,0,0,0,43.5,20a4.455,4.455,0,0,0-2.777.986,4.369,4.369,0,0,0-1.04-1.657A4.479,4.479,0,0,0,34,18.763V4.7A4.811,4.811,0,0,0,32.529,1.26,4.344,4.344,0,0,0,29.332,0,4.543,4.543,0,0,0,25,4.5V17.668L20.617,6.393a4.511,4.511,0,0,0-5.928-2.328,4.566,4.566,0,0,0-2.326,5.926l.032-.013c.631,1.78,3.707,9,5.011,12.052A6.009,6.009,0,0,0,12,28Zm31.5-6A2.5,2.5,0,0,1,46,24.5v6a2.5,2.5,0,1,1-5,0v-6A2.5,2.5,0,0,1,43.5,22Zm-7-2A2.516,2.516,0,0,1,39,22.5v6a2.484,2.484,0,0,1-3.668,2.2,4.968,4.968,0,0,0-1.325-8.272A2.5,2.5,0,0,1,36.5,20ZM29.405,2a2.4,2.4,0,0,1,1.736.7A2.806,2.806,0,0,1,32,4.7V22H27V4.5A2.557,2.557,0,0,1,29.405,2ZM14.217,9.241c-.006-.016-.013-.033-.02-.049A2.57,2.57,0,0,1,15.488,5.9a2.5,2.5,0,0,1,3.281,1.256L24.539,22H19.567C16.775,15.538,14.365,9.616,14.217,9.241ZM14,28a4,4,0,0,1,4-4H32a3,3,0,0,1,0,6H21a1,1,0,0,0-.449,1.894A10.509,10.509,0,0,1,26,41a1,1,0,1,0,2,0,12.065,12.065,0,0,0-3.944-9H32a4.949,4.949,0,0,0,1.425-.232,4.429,4.429,0,0,0,5.855.243A4.476,4.476,0,0,0,46,34.239V41a10.876,10.876,0,0,1-1.832,6.048A12.87,12.87,0,0,0,42,54.211V57a1,1,0,0,1-1,1H24a1,1,0,0,1-1-1,10.718,10.718,0,0,0-3.158-7.6L17.147,47.07A8.989,8.989,0,0,1,14,40.233Z"/>
<!-- <text x="0" y="75" fill="#000000" font-size="5px" font-weight="bold" font-family="'Helvetica Neue', Helvetica, Arial-Unicode, Arial, Sans-serif">Created by Juicy Fish</text><text x="0" y="80" fill="#000000" font-size="5px" font-weight="bold" font-family="'Helvetica Neue', Helvetica, Arial-Unicode, Arial, Sans-serif">from the Noun Project</text> -->
</svg>